<?xml version="1.0" encoding="UTF-8" standalone="no"?>
<svg
   width="377.95276"
   height="378.03265"
   viewBox="0 0 377.95276 378.03265"
   version="1.1"
   xml:space="preserve"
   style="clip-rule:evenodd;fill-rule:evenodd;stroke-linejoin:round;stroke-miterlimit:2"
   id="svg2"
   sodipodi:docname="pcb_39c3_100x100 06 end end print.svg"
   inkscape:version="1.4 (86a8ad7, 2024-10-11)"
   xmlns:inkscape="http://www.inkscape.org/namespaces/inkscape"
   xmlns:sodipodi="http://sodipodi.sourceforge.net/DTD/sodipodi-0.dtd"
   xmlns="http://www.w3.org/2000/svg"
   xmlns:svg="http://www.w3.org/2000/svg"><defs
   id="defs2" /><sodipodi:namedview
   id="namedview2"
   pagecolor="#ffffff"
   bordercolor="#000000"
   borderopacity="0.25"
   inkscape:showpageshadow="2"
   inkscape:pageopacity="0.0"
   inkscape:pagecheckerboard="0"
   inkscape:deskcolor="#d1d1d1"
   inkscape:zoom="2.6058859"
   inkscape:cx="226.41053"
   inkscape:cy="156.76051"
   inkscape:window-width="3072"
   inkscape:window-height="1622"
   inkscape:window-x="5"
   inkscape:window-y="-11"
   inkscape:window-maximized="1"
   inkscape:current-layer="svg2" />
    
    <g
   transform="matrix(0.19013277,0,0,0.19013277,-39.894232,44.631346)"
   id="g1">
        <path
   d="m 1411.49,953.696 h 7.74 l 13.32,65.094 h 3.23 l 13.53,-65.094 h 50.27 l -33.94,108.064 h -8.38 v 42.32 h -45.98 v -42.32 h -8.59 l -10.42,-33.17 h 19.22 z m -404.19,10.742 h -55.557 v 63.162 h 64.877 v 10.53 h -64.877 v 55.21 h 67.887 v 10.74 H 939.712 V 953.696 h 67.588 z m 241.2,42.122 c -0.19,2.56 -0.28,5.2 -0.28,7.94 v 28.78 c 0,18.77 4.37,33.2 13.11,43.29 8.73,10.1 22.12,15.15 40.17,15.15 h 3.22 c 10.75,0 19.66,-2.08 26.75,-6.23 7.09,-4.15 12.32,-9.38 15.68,-15.68 3.37,-6.3 5.05,-12.75 5.05,-19.34 v -5.8 h 4.73 v 5.8 c 0,7.31 -1.86,14.47 -5.59,21.48 -3.72,7.02 -9.48,12.82 -17.29,17.41 -7.81,4.58 -17.58,6.87 -29.33,6.87 h -3.22 c -13.18,0 -24.06,-2.47 -32.65,-7.41 -8.6,-4.94 -14.97,-12.14 -19.12,-21.59 -4.16,-9.45 -6.23,-20.77 -6.23,-33.95 v -28.78 c 0,-2.73 0.08,-5.37 0.26,-7.94 z m -102.71,0 c -1.13,5.33 -3.19,9.91 -6.17,13.74 -4.8,6.15 -10.78,10.09 -17.94,11.81 v 1.08 c 5.87,1 10.53,3.51 13.96,7.52 3.44,4.01 5.16,9.45 5.16,16.32 v 28.58 c 0,5.44 0.75,9.2 2.26,11.28 1.5,2.07 4.55,3.11 9.13,3.11 1.29,-0.14 2.5,-0.21 3.65,-0.21 v 4.51 c -0.43,0.14 -0.9,0.21 -1.4,0.21 h -1.61 c -4.01,0 -7.23,-0.61 -9.67,-1.82 -2.43,-1.22 -4.18,-3.19 -5.26,-5.91 -1.07,-2.72 -1.61,-6.37 -1.61,-10.96 v -28.79 c 0,-7.73 -2.69,-13.32 -8.06,-16.75 -5.37,-3.44 -13.5,-5.16 -24.38,-5.16 h -50.49 v 68.96 h -4.51 v -97.52 h 4.51 v 24.05 h 50.7 c 12.32,0 21.74,-2.94 28.26,-8.81 4.29,-3.87 7.17,-8.95 8.63,-15.24 z m -869.631,49.19 h 11.086 v 7.73 c 0,4.58 1.146,8.56 3.438,11.92 2.291,3.37 5.693,5.95 10.204,7.74 4.512,1.79 9.704,2.68 15.576,2.68 h 3.85 c -1.293,4.94 -1.982,10.12 -1.982,15.45 0,1.45 0.051,2.89 0.151,4.32 h -2.234 c -9.007,0 -16.92,-1.05 -23.74,-3.15 -5.833,-15.38 -11.286,-30.95 -16.349,-46.69 z m 43.652,111.5 c 11.166,0.03 20.577,1.6 28.234,4.72 7.734,3.15 13.606,7.95 17.616,14.4 4.011,6.44 6.016,14.53 6.016,24.27 v 6.88 h -26.7 c -0.916,-1.71 -1.827,-3.41 -2.733,-5.12 v -2.83 c 0,-4.01 -0.967,-7.38 -2.9,-10.1 -1.652,-2.32 -3.852,-4.15 -6.6,-5.48 -4.443,-8.84 -8.754,-17.75 -12.933,-26.74 z m 39.967,76.81 c 2.325,1.98 4.501,4.27 6.528,6.87 3.123,3.99 5.245,8.92 6.365,14.77 -4.388,-7.15 -8.686,-14.37 -12.893,-21.64 z m 97.733,139.32 h 58.753 c 5.913,0 11.393,0.46 16.438,1.38 4.145,8.52 12.89,14.4 22.997,14.4 1.665,0 3.294,-0.16 4.871,-0.46 2.01,2.15 3.784,4.52 5.322,7.13 0.166,0.28 0.329,0.56 0.489,0.85 -0.063,0.73 -0.096,1.47 -0.096,2.22 0,6.13 2.156,11.74 5.748,16.15 0.346,2.86 0.519,5.87 0.519,9.03 v 6.44 c 0,11.32 -2.185,20.77 -6.553,28.36 -3.167,5.5 -7.388,9.99 -12.662,13.46 -7.191,-6.45 -14.286,-13 -21.281,-19.66 1.234,-0.76 2.344,-1.62 3.328,-2.61 4.154,-4.15 6.231,-10.38 6.231,-18.69 v -8.16 c 0,-8.17 -2.113,-14.33 -6.338,-18.48 -4.225,-4.15 -10.706,-6.23 -19.443,-6.23 h -33.515 v 3.26 c -8.448,-9.31 -16.719,-18.77 -24.808,-28.39 z m 276.27,227.17 -2.678,-12.34 h 31.152 l 5.953,30.43 c -11.609,-5.8 -23.087,-11.84 -34.427,-18.09 z m 65.711,33.05 9.598,-45.39 h 31.366 l 14.369,68.6 c -18.729,-7.18 -37.18,-14.92 -55.333,-23.21 z m 73.025,29.79 14.559,-75.18 h 31.152 l -18.029,84.7 c -9.29,-3.04 -18.518,-6.21 -27.682,-9.52 z m 60.965,19.75 v -94.93 h 89.798 v 25.57 h -59.506 v 40.17 h 54.356 v 25.14 h -54.356 v 12.23 c -10.162,-2.57 -20.26,-5.29 -30.292,-8.18 z m 108.708,24.57 v -119.5 h 62.73 c 15.9,0 28.15,3.41 36.74,10.21 8.59,6.8 12.89,16.43 12.89,28.9 v 4.08 c 0,2.56 -0.17,5 -0.5,7.32 -2.24,-11.82 -12.64,-20.78 -25.11,-20.78 -1.04,0 -2.05,0.06 -3.05,0.18 -0.96,-1.5 -2.11,-2.84 -3.46,-4.02 -4.65,-4.08 -11.49,-6.12 -20.51,-6.12 h -35.88 v 52.64 h 35.88 c 2.72,0 5.25,-0.19 7.57,-0.55 4.69,5.5 11.66,8.98 19.45,8.98 h 0.47 v 0.37 c 6.02,0.72 10.53,2.94 13.54,6.66 3.01,3.73 4.51,8.74 4.51,15.04 v 18.05 c 0,4.01 0.65,6.77 1.93,8.27 1.29,1.5 3.51,2.26 6.67,2.26 h 4.29 v 0.29 c -12.44,-0.53 -24.82,-1.3 -37.14,-2.29 -0.02,-0.54 -0.03,-1.09 -0.03,-1.66 v -20.84 c 0,-5.44 -1.61,-9.31 -4.83,-11.6 -3.22,-2.29 -8.13,-3.44 -14.72,-3.44 h -37.59 v 31.21 c -7.98,-1.12 -15.93,-2.34 -23.85,-3.66 z m 208.05,12.04 c -1.85,-2.55 -3.49,-5.32 -4.92,-8.33 -4.65,-9.81 -6.98,-21.87 -6.98,-36.2 v -7.63 c 9.91,-3.52 17.02,-12.98 17.02,-24.09 0,-9.35 -5.04,-17.53 -12.54,-21.99 0.74,-2.13 1.58,-4.17 2.5,-6.12 4.66,-9.81 11.6,-17.15 20.84,-22.02 9.24,-4.87 20.59,-7.3 34.05,-7.3 h 3.44 c 12.32,0 22.77,2.25 31.37,6.76 8.59,4.52 15.04,10.89 19.33,19.12 4.3,8.24 6.45,17.66 6.45,28.25 v 7.53 h -23.64 v -7.74 c 0,-6.3 -1.18,-11.96 -3.54,-16.97 -2.36,-5.01 -6.05,-8.99 -11.06,-11.92 -5.02,-2.94 -11.32,-4.41 -18.91,-4.41 h -3.44 c -12.6,0 -21.98,3.72 -28.14,11.17 -0.25,0.3 -0.49,0.61 -0.73,0.92 h -10.02 c -2.74,0 -4.96,2.22 -4.96,4.97 v 40.34 c 0,2.74 2.22,4.96 4.96,4.96 h 1.51 v 6.39 c 0,14.89 3.11,26.07 9.35,33.51 3.21,3.84 7.25,6.69 12.12,8.55 -11.3,0.95 -22.65,1.69 -34.06,2.25 z m 76.13,-6.67 c 3.12,-2.55 5.53,-5.64 7.25,-9.28 2.36,-5.01 3.54,-10.67 3.54,-16.97 v -6.23 h 23.64 v 6.01 c 0,8.08 -1.22,15.43 -3.65,22.05 -10.21,1.63 -20.47,3.11 -30.78,4.42 z m 99.31,-17.93 v -11.12 h -7.31 l -41.89,-95.82 h 21.48 l 32.66,77.35 h 9.45 l 32.87,-77.35 h 14.05 c 0.7,3.52 1.71,6.92 2.99,10.18 l -37.45,85.64 h -7.52 v 6.36 c -6.42,1.65 -12.86,3.24 -19.33,4.76 z m 74.12,-20.57 v -23.42 c 0,-11.89 1.58,-22.22 4.76,-30.99 4.96,4.76 10.73,8.69 17.08,11.56 -1.38,5.61 -2.08,12.01 -2.08,19.22 V 1678 c -6.55,2.26 -13.14,4.45 -19.76,6.58 z m 100.92,-38.75 c -0.27,-5.58 -1.54,-10.71 -3.82,-15.39 -0.93,-1.92 -2.06,-3.7 -3.38,-5.35 4.09,-4.92 7.41,-10.49 9.79,-16.53 4.29,3.64 7.74,7.96 10.35,12.96 2.57,4.92 4.35,10.21 5.33,15.87 -6.06,2.88 -12.15,5.69 -18.27,8.44 z m 43.88,-21.07 v -26.55 h 12.03 v 20.29 c -3.99,2.12 -8,4.2 -12.03,6.26 z m 144.89,-91 h -40.91 V 1383.38 H 1817 c -5.09,0.22 -9.79,1.94 -13.67,4.72 h -50.24 v 72.4 h 9.42 c 1.35,1.77 2.92,3.36 4.68,4.73 h -14.1 v 63.81 h 42.58 c -2.05,1.58 -4.12,3.15 -6.18,4.72 z m 50.08,-40.63 c -0.07,-1.38 -0.11,-2.81 -0.11,-4.27 v -5.8 H 1851 c -3.79,3.39 -7.6,6.74 -11.43,10.07 z m 23.45,-21.01 c -5.77,-2.62 -10.86,-6.78 -15.29,-12.48 -5.23,-6.73 -7.84,-16.4 -7.84,-29 v -2.58 c 0,-2.12 0.09,-4.17 0.27,-6.13 2.26,-3.82 3.56,-8.27 3.56,-13.03 0,-0.51 -0.01,-1.02 -0.04,-1.52 0.82,-1.89 1.78,-3.66 2.87,-5.31 0.79,-1.21 1.65,-2.35 2.57,-3.44 1.67,0.35 3.41,0.53 5.19,0.53 10.36,0 19.29,-6.18 23.3,-15.06 5.88,-1.06 12.42,-1.58 19.64,-1.58 h 3.22 c 12.18,0 22.38,1.5 30.62,4.51 3.47,1.26 6.59,2.86 9.36,4.79 -9.62,11.18 -19.49,22.15 -29.6,32.88 -0.22,-1.53 -0.67,-2.81 -1.35,-3.84 -1.01,-1.5 -2.3,-2.57 -3.87,-3.22 -1.58,-0.64 -3.37,-0.97 -5.37,-0.97 h -3.65 c -3.3,0 -5.84,0.61 -7.63,1.83 -1.79,1.22 -2.69,3.05 -2.69,5.48 v 3.65 c 0,2.29 0.86,4.08 2.58,5.37 1.72,1.29 3.91,2.29 6.55,3.01 1.06,0.28 2.3,0.58 3.75,0.89 -11.75,12.05 -23.8,23.79 -36.15,35.22 z m 171.94,-210.52 v -93.06 h 49.76 c -3.12,6.7 -6.32,13.36 -9.6,19.98 h -16.31 v 31.5 c -7.62,14.07 -15.57,27.94 -23.85,41.58 z m 96.53,-213.78 c -0.92,0.52 -1.87,1.02 -2.86,1.48 -7.59,3.58 -16.97,5.37 -28.14,5.37 h -44.69 v 49.41 h -19.33 V 953.696 h 63.59 c 11.31,0 20.77,1.791 28.36,5.371 7.59,3.581 13.32,8.809 17.19,15.684 1.47,2.617 2.66,5.483 3.57,8.599 -5.17,21.78 -11.08,43.28 -17.69,64.47 z m -75.69,-9.69 h 44.47 c 10.89,0 18.84,-2.47 23.85,-7.41 5.01,-4.94 7.52,-12.5 7.52,-22.67 v -7.95 c 0,-10.024 -2.58,-17.544 -7.73,-22.556 -5.16,-5.013 -13.18,-7.52 -24.07,-7.52 h -44.04 z m 88.13,-526.537 c -4.66,5.355 -10.51,9.516 -17.55,12.482 -9.53,4.01 -20.74,6.015 -33.63,6.015 h -19.33 v 32.226 h -45.76 v -82.769 c 1.04,0.053 2.1,0.081 3.16,0.081 16.58,0 31.62,-6.645 42.6,-17.414 v 30.279 h 18.9 c 5.45,0 9.64,-1.468 12.57,-4.404 2.94,-2.936 4.41,-7.269 4.41,-12.998 v -8.378 c 0,-5.729 -1.47,-10.062 -4.41,-12.998 -2.93,-2.936 -7.12,-4.404 -12.57,-4.404 h -8.86 c 5.22,-8.979 8.22,-19.414 8.22,-30.542 0,-2.312 -0.13,-4.595 -0.38,-6.84 h 1.45 c 7.19,0 13.85,0.623 19.97,1.87 12.06,31.836 22.49,64.468 31.21,97.794 z m -70.51,-187.52 v 23.404 h -30.29 v -79.36 c 10.68,18.281 20.79,36.942 30.29,55.956 z M 1922.34,103.718 c -1,4.733 -2.67,8.859 -5,12.377 -4.08,6.159 -10.06,10.67 -17.94,13.535 -6.4,2.328 -14.03,3.71 -22.89,4.146 -4.41,-7.7 -12.7,-12.893 -22.2,-12.893 -5.77,0 -11.1,1.917 -15.38,5.148 3.01,-4.194 4.79,-9.338 4.79,-14.893 0,-14.105 -11.45,-25.557 -25.56,-25.557 -1.98,0 -3.91,0.227 -5.77,0.657 v -2.799 h 29.43 v 7.735 c 0,4.01 0.97,7.412 2.9,10.204 1.94,2.793 4.77,4.906 8.49,6.338 3.72,1.432 8.02,2.149 12.89,2.149 h 4.08 c 7.31,0 12.89,-1.254 16.76,-3.76 3.87,-2.507 5.8,-6.338 5.8,-11.494 v -2.793 c 0,-4.01 -1.25,-7.304 -3.76,-9.883 -2.51,-2.578 -5.69,-4.583 -9.56,-6.015 -3.87,-1.432 -9.17,-3.008 -15.9,-4.726 -10.31,-2.435 -18.83,-5.049 -25.57,-7.842 -6.73,-2.793 -12.53,-7.305 -17.4,-13.535 -4.87,-6.23 -7.3,-14.788 -7.3,-25.673 v -1.719 c 0,-7.17 1.19,-13.393 3.58,-18.668 9.43,7.685 18.7,15.543 27.83,23.569 0.63,1.972 1.69,3.704 3.18,5.196 2.45,2.455 5.49,4.39 9.11,5.806 22.81,20.755 44.63,42.578 65.39,65.39 z M 1801.65,-8.38 v 29.086 h -52.21 v 20.41 h 45.55 v 11.246 l -8.2,-8.194 c -0.93,-0.931 -2.19,-1.454 -3.51,-1.454 -1.31,0 -2.58,0.523 -3.51,1.454 l -27.73,27.738 c -1.8,1.799 -1.93,4.64 -0.39,6.592 h -2.21 v 15.683 h 17.4 l 12.88,13.269 c 0.94,0.963 2.22,1.507 3.56,1.507 1.34,0 2.63,-0.544 3.57,-1.507 l 9.8,-10.099 c -2.56,3.979 -4.04,8.711 -4.04,13.787 0,7.809 3.51,14.806 9.04,19.495 v 2.005 h -97.97 V -17.75 h 85.81 c 4.08,3.092 8.13,6.215 12.16,9.37 z m -108.59,-73.822 h -54.69 v -29.707 c 18.57,9.333 36.81,19.243 54.69,29.707 z m -70.47,-37.457 c -1.18,4.336 -2.73,8.3 -4.63,11.891 -5.01,9.453 -12.21,16.436 -21.59,20.947 -9.38,4.512 -20.59,6.768 -33.62,6.768 h -3.66 c -14.03,0 -25.99,-2.399 -35.88,-7.197 -9.88,-4.799 -17.4,-12.246 -22.55,-22.344 -5.16,-10.097 -7.74,-23.023 -7.74,-38.778 v -17.617 c 0,-1.605 0.03,-3.182 0.08,-4.73 15.69,4.907 31.21,10.201 46.54,15.871 v 7.12 c 0,10.169 1.65,17.51 4.94,22.021 3.3,4.512 8.17,6.768 14.61,6.768 h 3.44 c 4.15,0 7.52,-0.788 10.1,-2.363 2.58,-1.576 4.47,-4.118 5.69,-7.627 0.91,-2.609 1.48,-5.911 1.71,-9.905 14.36,6.06 28.55,12.455 42.56,19.175 z m -141.31,-54.647 -15.64,49.781 h -8.38 v 42.323 h -45.98 v -42.323 h -8.59 l -23.34,-74.306 c 16.45,3.024 32.75,6.463 48.9,10.305 l 4.3,21.033 h 3.23 l 3.79,-18.267 c 14.03,3.516 27.93,7.336 41.71,11.454 z m -126.65,-28.74 c 1.53,4.601 2.3,9.291 2.3,14.069 v 8.379 h -4.73 v -8.379 c 0,-5.109 -0.97,-10.073 -2.9,-14.893 1.78,0.27 3.55,0.544 5.33,0.824 z m -94.82,-10.177 c -7.73,9.981 -11.59,23.792 -11.59,41.433 v 20.63 c -1.41,-1.47 -3,-2.771 -4.72,-3.87 v -16.76 c 0,-13.176 2.07,-24.491 6.23,-33.944 1.23,-2.801 2.65,-5.405 4.27,-7.81 1.94,0.101 3.87,0.208 5.81,0.321 z m -116.9,0.143 c 2.61,5.234 3.91,11.407 3.91,18.517 v 4.297 c 0,10.026 -2.4,18.118 -7.2,24.277 -2.5,3.209 -5.32,5.815 -8.46,7.818 h -9.9 c 4.32,-1.462 8.01,-3.567 11.06,-6.314 6.51,-5.872 9.77,-14.538 9.77,-25.996 v -4.082 c 0,-7.212 -1.43,-13.276 -4.29,-18.194 1.7,-0.112 3.41,-0.22 5.11,-0.323 z m -89.55,9.589 v 47.814 h 50.7 c 0.56,0 1.12,-0.006 1.67,-0.018 -0.43,0.731 -0.67,1.581 -0.67,2.488 v 2.049 c -0.4,-0.005 -0.8,-0.007 -1.21,-0.007 h -50.49 v 68.963 h -4.51 v -120.583 c 1.5,-0.239 3.01,-0.474 4.51,-0.706 z m -101.617,21.305 v 23.502 h 64.877 v 10.527 h -64.877 v 55.213 h 67.887 v 10.742 h -79.918 v -96.695 c 4,-1.122 8.01,-2.218 12.031,-3.289 z m -55.203,16.49 -10.618,42.962 c -3.625,-1.451 -7.421,-2.564 -11.349,-3.299 l 8.658,-35.142 c 4.422,-1.538 8.858,-3.045 13.309,-4.521 z m -43.387,15.545 6.057,23.217 c -3.702,0.248 -7.314,0.828 -10.806,1.71 l -5.625,-20.86 c 3.448,-1.375 6.907,-2.731 10.374,-4.067 z m -51.387,21.527 -12.442,46.422 h -15.683 l -7.365,-29.46 c 3.568,-1.795 7.148,-3.569 10.74,-5.321 l 4.359,17.809 h 1.289 l 6.118,-23.449 c 4.31,-2.031 8.639,-4.031 12.984,-6.001 z M 617.421,-19.09 c 4.073,-0.539 8.38,-0.808 12.922,-0.808 h 2.793 c 13.464,0 24.886,2.47 34.267,7.412 9.381,4.941 16.543,12.353 21.484,22.235 4.941,9.883 7.412,22.129 7.412,36.738 v 22.128 c 0,14.61 -2.435,26.82 -7.304,36.631 -4.87,9.811 -12.031,17.187 -21.484,22.128 -9.453,4.941 -20.911,7.412 -34.375,7.412 h -2.793 c -8.691,0 -16.524,-0.987 -23.499,-2.962 5.852,-4.253 9.833,-10.929 10.466,-18.548 3.911,1.02 8.256,1.53 13.033,1.53 h 2.578 c 13.177,0 22.952,-3.796 29.326,-11.387 6.374,-7.591 9.56,-19.049 9.56,-34.374 V 46.057 c 0,-15.325 -3.222,-26.819 -9.667,-34.481 C 655.694,3.913 645.955,0.082 632.921,0.082 h -2.578 c -13.033,0 -22.844,3.831 -29.433,11.494 -6.588,7.662 -9.882,19.156 -9.882,34.481 v 22.988 c 0,6.136 0.528,11.652 1.584,16.548 -0.256,-0.008 -0.513,-0.012 -0.77,-0.012 -8.877,0 -16.702,4.535 -21.284,11.413 -2.681,-8.158 -4.022,-17.617 -4.022,-28.379 V 46.487 c 0,-10.442 1.262,-19.677 3.787,-27.704 15.296,-13.098 31.003,-25.729 47.098,-37.873 z m -66.568,54.996 v 1.558 c 0,10.742 -2.041,19.729 -6.123,26.962 -4.082,7.233 -10.062,12.676 -17.939,16.328 -7.573,3.511 -16.8,5.334 -27.682,5.47 16.622,-17.4 33.883,-34.185 51.744,-50.318 z M 359.591,272.278 c 5.049,6.718 7.574,16.101 7.574,28.149 v 2.148 c 0,11.029 -2.184,19.909 -6.552,26.64 -4.369,6.732 -10.742,11.602 -19.121,14.61 -5.96,2.139 -13.062,3.518 -21.306,4.135 12.051,-25.864 25.206,-51.111 39.405,-75.682 z m -66.904,140.818 c 6.008,-2.21 13.003,-3.316 20.983,-3.316 h 6.231 c 9.596,0 17.796,1.683 24.599,5.049 6.803,3.366 11.959,8.056 15.468,14.072 3.509,6.015 5.264,12.89 5.264,20.624 v 8.379 h -4.727 v -8.379 c 0,-6.874 -1.575,-12.997 -4.726,-18.368 -3.151,-5.371 -7.77,-9.525 -13.857,-12.461 -6.087,-2.936 -13.428,-4.404 -22.021,-4.404 h -6.231 c -9.297,0 -17.024,1.548 -23.179,4.645 0.726,-1.95 1.458,-3.897 2.196,-5.841 z m -14.941,42.281 c 0.948,2.682 2.252,5.1 3.913,7.254 3.867,5.013 8.701,8.951 14.502,11.816 5.801,2.864 13.571,5.944 23.31,9.238 10.456,3.724 18.798,7.125 25.029,10.205 6.23,3.079 11.529,7.483 15.898,13.212 4.368,5.729 6.552,13.106 6.552,22.129 v 1.504 c 0,7.018 -1.826,13.033 -5.478,18.046 -3.652,5.013 -8.808,8.88 -15.468,11.601 -6.66,2.722 -14.645,4.082 -23.955,4.082 h -6.015 c -9.883,0 -18.369,-1.718 -25.459,-5.156 -7.09,-3.437 -12.425,-8.235 -16.005,-14.394 -3.581,-6.159 -5.371,-13.248 -5.371,-21.269 v -7.734 h 4.726 v 7.734 c 0,7.304 1.611,13.642 4.834,19.013 3.223,5.371 8.021,9.596 14.394,12.676 6.374,3.079 14.001,4.619 22.881,4.619 h 6.015 c 12.604,0 22.487,-2.507 29.648,-7.52 7.161,-5.012 10.742,-12.245 10.742,-21.698 v -1.504 c 0,-8.021 -2.005,-14.573 -6.016,-19.658 -4.01,-5.085 -8.987,-9.059 -14.931,-11.924 -5.944,-2.864 -13.785,-6.015 -23.525,-9.453 -10.455,-3.723 -18.762,-7.125 -24.921,-10.204 -6.159,-3.08 -11.351,-7.412 -15.576,-12.998 -0.691,-0.914 -1.326,-1.872 -1.904,-2.875 0.718,-2.251 1.445,-4.498 2.18,-6.742 z m 373.222,650.853 c -13.463,0 -24.85,-2.47 -34.159,-7.41 -9.31,-4.94 -16.364,-12.32 -21.162,-22.13 -4.798,-9.81 -7.197,-21.88 -7.197,-36.2 v -23.2 c 0,-14.18 2.399,-26.212 7.197,-36.094 4.798,-9.883 11.852,-17.295 21.162,-22.236 9.309,-4.941 20.696,-7.412 34.159,-7.412 h 2.793 c 13.32,0 24.599,2.506 33.837,7.519 9.238,5.013 16.22,12.425 20.947,22.236 4.726,9.811 7.09,21.807 7.09,35.987 v 23.2 c 0,14.32 -2.364,26.39 -7.09,36.2 -4.727,9.81 -11.709,17.19 -20.947,22.13 -9.238,4.94 -20.517,7.41 -33.837,7.41 z m 2.578,-16.33 c 14.323,0 24.957,-4.11 31.904,-12.35 6.946,-8.23 10.419,-20.44 10.419,-36.63 v -23.85 c 0,-16.18 -3.509,-28.426 -10.527,-36.734 -7.018,-8.307 -17.617,-12.46 -31.796,-12.46 h -2.578 c -14.179,0 -24.85,4.153 -32.011,12.46 -7.161,8.308 -10.742,20.554 -10.742,36.734 v 23.85 c 0,16.19 3.581,28.4 10.742,36.63 7.161,8.24 17.832,12.35 32.011,12.35 z m 82.498,-136.204 h 12.676 l 32.655,133.414 h 1.289 l 34.804,-133.414 h 14.18 l 34.804,133.414 h 1.504 l 32.87,-133.414 h 12.246 l -37.167,150.384 h -15.898 l -34.59,-128.255 h -1.718 l -34.375,128.255 h -15.683 z m 902.326,0 h 30.29 v 124.394 h 56.29 v 25.99 h -86.58 z m -79.28,152.534 c -14.03,0 -25.99,-2.4 -35.88,-7.19 -9.88,-4.8 -17.4,-12.25 -22.55,-22.35 -5.16,-10.1 -7.74,-23.02 -7.74,-38.78 v -17.61 c 0,-15.76 2.58,-28.756 7.74,-38.997 5.15,-10.24 12.67,-17.76 22.55,-22.558 9.89,-4.798 21.85,-7.197 35.88,-7.197 h 3.66 c 13.03,0 24.24,2.256 33.62,6.767 9.38,4.512 16.58,11.494 21.59,20.947 5.01,9.453 7.52,21.488 7.52,36.098 v 6.23 h -45.33 v -6.88 c 0,-6.01 -0.61,-10.78 -1.83,-14.29 -1.22,-3.505 -3.11,-6.047 -5.69,-7.623 -2.58,-1.575 -5.95,-2.363 -10.1,-2.363 h -3.44 c -6.44,0 -11.31,2.256 -14.61,6.767 -3.29,4.509 -4.94,11.999 -4.94,22.449 v 18.91 c 0,10.17 1.65,17.51 4.94,22.02 3.3,4.51 8.17,6.77 14.61,6.77 h 3.44 c 4.15,0 7.52,-0.79 10.1,-2.37 2.58,-1.57 4.47,-4.11 5.69,-7.62 1.22,-3.51 1.83,-8.27 1.83,-14.29 v -6.66 h 45.33 v 6.01 c 0,14.61 -2.51,26.65 -7.52,36.1 -5.01,9.45 -12.21,16.43 -21.59,20.94 -9.38,4.52 -20.59,6.77 -33.62,6.77 z M 475.015,1054.67 v 49.41 H 455.679 V 953.696 h 63.593 c 11.314,0 20.767,1.791 28.358,5.371 7.591,3.581 13.32,8.809 17.187,15.684 3.868,6.874 5.801,15.468 5.801,25.779 v 7.09 c 0,10.31 -1.898,18.94 -5.693,25.89 -3.796,6.95 -9.489,12.21 -17.08,15.79 -7.591,3.58 -16.972,5.37 -28.144,5.37 z m 0,-16.54 h 44.471 c 10.886,0 18.835,-2.47 23.848,-7.41 5.012,-4.94 7.519,-12.5 7.519,-22.67 v -7.95 c 0,-10.024 -2.578,-17.544 -7.734,-22.556 -5.156,-5.013 -13.177,-7.52 -24.062,-7.52 h -44.042 z m 1422.025,67.46 c -11.18,0 -20.66,-1.61 -28.47,-4.84 -7.81,-3.22 -13.71,-8.02 -17.72,-14.39 -4.01,-6.37 -6.02,-14.22 -6.02,-23.52 v -7.09 h 23.2 v 7.73 c 0,4.58 1.15,8.56 3.44,11.92 2.29,3.37 5.69,5.95 10.2,7.74 4.52,1.79 9.71,2.68 15.58,2.68 h 4.08 c 8.6,0 15.29,-1.54 20.09,-4.62 4.8,-3.08 7.2,-7.77 7.2,-14.07 v -2.58 c 0,-4.72 -1.44,-8.66 -4.3,-11.81 -2.86,-3.15 -6.48,-5.62 -10.85,-7.41 -4.37,-1.79 -10.42,-3.69 -18.15,-5.7 -10.31,-2.72 -18.77,-5.51 -25.35,-8.38 -6.59,-2.86 -12.25,-7.34 -16.98,-13.42 -4.72,-6.09 -7.09,-14.22 -7.09,-24.388 v -1.504 c 0,-8.88 2.01,-16.292 6.02,-22.236 4.01,-5.944 9.77,-10.348 17.29,-13.213 7.52,-2.864 16.65,-4.296 27.4,-4.296 h 3.43 c 10.89,0 20.13,1.611 27.72,4.833 7.59,3.223 13.35,7.985 17.29,14.287 3.94,6.302 5.91,14.036 5.91,23.203 v 7.514 h -22.99 v -8.374 c 0,-4.583 -1.14,-8.486 -3.43,-11.708 -2.3,-3.223 -5.55,-5.693 -9.78,-7.412 -4.22,-1.719 -9.13,-2.578 -14.72,-2.578 h -3.65 c -8.16,0 -14.57,1.504 -19.23,4.511 -4.65,3.008 -6.98,7.591 -6.98,13.75 v 2.148 c 0,4.87 1.43,8.843 4.3,11.923 2.86,3.08 6.51,5.52 10.95,7.31 4.44,1.79 10.46,3.68 18.05,5.69 10.46,2.86 18.94,5.73 25.46,8.59 6.52,2.87 12.14,7.31 16.86,13.32 4.73,6.02 7.09,14.11 7.09,24.28 v 1.93 c 0,9.17 -2,16.72 -6.01,22.67 -4.01,5.94 -9.85,10.35 -17.51,13.21 -7.66,2.86 -17.01,4.3 -28.04,4.3 z m -126.97,-61.02 v 33.95 h 59.51 v 25.56 h -89.81 V 953.696 h 89.81 v 25.566 h -59.51 v 40.178 h 54.35 v 25.13 z M 1337.16,505.48 v -1.171 h 23.64 v 1.171 z m 23.46,-46.696 c 0.12,1.68 0.18,3.392 0.18,5.136 v 7.519 h -23.64 v -7.734 c 0,-1.687 -0.08,-3.327 -0.25,-4.921 z m -109.49,-578.162 c 2.17,7.769 5.57,14.324 10.2,19.667 8.73,10.097 22.12,15.146 40.17,15.146 h 3.22 c 10.75,0 19.66,-2.077 26.75,-6.23 7.09,-4.154 12.32,-9.382 15.68,-15.684 3.37,-6.302 5.05,-12.747 5.05,-19.335 v -5.801 h 4.73 v 5.801 c 0,7.304 -1.86,14.466 -5.59,21.484 -3.72,7.018 -9.48,12.819 -17.29,17.402 -7.81,4.583 -17.58,6.875 -29.33,6.875 h -3.22 c -13.18,0 -24.06,-2.471 -32.65,-7.412 -8.6,-4.942 -14.97,-12.139 -19.12,-21.592 -0.84,-1.904 -1.59,-3.884 -2.26,-5.94 1.37,-1.317 2.6,-2.786 3.66,-4.381 z m -110.33,11.48 v 7.22 c 0,5.443 0.75,9.202 2.26,11.279 1.5,2.077 4.55,3.115 9.13,3.115 1.29,-0.143 2.5,-0.215 3.65,-0.215 v 4.512 c -0.43,0.143 -0.9,0.215 -1.4,0.215 h -1.61 c -4.01,0 -7.23,-0.609 -9.67,-1.826 -2.43,-1.218 -4.18,-3.187 -5.26,-5.908 -1.07,-2.722 -1.61,-6.374 -1.61,-10.957 v -7.435 z m -98.61,613.378 v -46.696 h 23.85 v 25.545 h 35.88 c 9.16,0 16.04,-2.041 20.62,-6.123 4.58,-4.081 6.87,-10.133 6.87,-18.153 v -1.269 h 25.02 c -0.54,7.961 -2.86,14.65 -6.97,20.067 -4.72,6.23 -10.74,10.276 -18.05,12.138 v 2.149 c 6.02,0.716 10.53,2.936 13.54,6.66 1.33,1.643 2.36,3.537 3.1,5.682 h -31.28 c -2.93,-1.067 -6.64,-1.6 -11.14,-1.6 h -37.59 v 1.6 z M 994.659,347.477 H 915.005 V 197.089 h 79.654 v 20.41 h -55.806 v 48.124 h 55.806 v 19.98 h -55.806 v 41.464 h 55.806 z M 1238.51,505.48 c -0.12,-2.125 -0.17,-4.306 -0.17,-6.542 v -23.417 c 0,-5.976 0.4,-11.555 1.19,-16.737 h 24.82 c -1.01,4.821 -1.52,10.257 -1.52,16.307 v 24.062 c 0,2.19 0.07,4.299 0.2,6.327 z M 893.577,-13.401 859.362,132.638 H 834.441 L 805.008,19.632 h -2.149 L 773.856,132.638 H 748.935 L 713.486,-17.75 h 19.98 l 28.144,123.533 h 1.934 L 793.406,-17.75 h 21.055 l 30.077,123.533 h 2.149 L 871.95,-5.961 c 7.778,-1.105 15.084,-3.682 21.627,-7.44 z M 996.613,562.316 H 933.482 V 411.929 h 61.177 v 25.565 h -30.885 v 40.175 h 54.356 v 25.137 h -54.356 v 33.944 h 32.839 z m 366.157,-361.515 36.48,77.068 h 11.17 l 38.25,-80.78 h 13.32 l -0.14,0.282 h -3.01 c -2.74,0 -4.96,2.222 -4.96,4.963 v 11.764 l -35.94,75.372 h -7.09 v 58.007 h -12.03 V 289.47 h -7.3 l -28.75,-60.305 z M 1477.46,72.792 c 0.14,18.298 4.51,32.41 13.1,42.336 8.74,10.098 22.13,15.146 40.18,15.146 h 3.22 c 10.74,0 19.66,-2.076 26.74,-6.23 7.09,-4.154 12.32,-9.381 15.69,-15.683 3.36,-6.302 5.05,-12.747 5.05,-19.336 v -5.8 h 4.72 v 5.8 c 0,7.305 -1.86,14.466 -5.58,21.484 -3.73,7.018 -9.49,12.819 -17.3,17.402 -7.8,4.583 -17.58,6.875 -29.32,6.875 h -3.22 c -13.18,0 -24.07,-2.471 -32.66,-7.412 -8.59,-4.941 -14.97,-12.138 -19.12,-21.591 -3.85,-8.753 -5.91,-19.102 -6.2,-31.047 1.63,-0.52 3.2,-1.172 4.7,-1.944 z m -1.54,-55.17 c 0.84,-2.99 1.86,-5.829 3.04,-8.517 4.15,-9.453 10.53,-16.65 19.12,-21.591 8.59,-4.942 19.48,-7.412 32.66,-7.412 h 3.22 c 11.74,0 21.52,2.255 29.32,6.767 7.81,4.512 13.57,10.277 17.3,17.295 3.72,7.018 5.58,14.251 5.58,21.698 v 0.145 c -1.48,-1.776 -3.15,-3.382 -4.99,-4.784 -0.6,-5.083 -2.2,-10.017 -4.78,-14.804 -3.37,-6.23 -8.6,-11.422 -15.69,-15.575 -7.08,-4.154 -16,-6.231 -26.74,-6.231 h -3.22 c -18.05,0 -31.44,5.049 -40.18,15.146 -4.73,5.467 -8.18,12.203 -10.35,20.21 -1.36,-0.892 -2.79,-1.678 -4.29,-2.347 z m -77.23,48.588 0.13,0.257 h 12.68 l 43.83,-84.217 h 5.37 l -46.19,88.944 h -7.09 v 61.444 h -4.52 V 71.194 h -7.08 l -1.3,-2.5 c 1.47,-0.697 2.87,-1.53 4.17,-2.484 z m -27.71,-42.847 -21.36,-41.113 h 5.38 l 20.36,39.134 c -1.53,0.523 -3,1.188 -4.38,1.979 z m 533.45,179.195 c 6.16,3.016 11,7.28 14.52,12.793 4.3,6.731 6.44,15.755 6.44,27.069 v 5.157 h -45.33 v -6.875 c 0,-2.578 -0.5,-4.619 -1.5,-6.123 -1,-1.504 -2.29,-2.578 -3.87,-3.223 -1.57,-0.644 -3.36,-0.967 -5.37,-0.967 h -3.65 c -3.29,0 -5.84,0.609 -7.63,1.827 -1.79,1.217 -2.68,3.043 -2.68,5.478 v 3.652 c 0,2.292 0.86,4.082 2.57,5.371 1.72,1.289 3.91,2.292 6.56,3.008 2.65,0.716 6.55,1.504 11.71,2.363 10.02,1.719 18.47,3.796 25.35,6.23 6.87,2.435 12.89,7.019 18.04,13.75 5.16,6.732 7.74,16.185 7.74,28.359 v 2.148 c 0,11.029 -2.19,19.909 -6.55,26.64 -4.37,6.732 -10.75,11.602 -19.13,14.61 -8.37,3.007 -19.01,4.511 -31.9,4.511 h -4.94 c -12.46,0 -22.84,-1.468 -31.15,-4.404 -8.31,-2.936 -14.57,-7.77 -18.8,-14.502 -4.23,-6.731 -6.34,-15.683 -6.34,-26.855 v -5.8 h 44.9 v 7.089 c 0,2.435 0.54,4.405 1.62,5.908 1.07,1.504 2.5,2.614 4.29,3.33 1.79,0.717 3.76,1.075 5.91,1.075 h 4.73 c 3.72,0 6.48,-0.573 8.27,-1.719 1.79,-1.146 2.68,-3.151 2.68,-6.016 v -3.222 c 0,-2.005 -0.82,-3.652 -2.47,-4.941 -1.64,-1.289 -3.79,-2.256 -6.44,-2.901 -2.65,-0.644 -6.34,-1.396 -11.07,-2.256 -10.02,-1.575 -18.58,-3.58 -25.67,-6.015 -7.09,-2.435 -13.25,-7.018 -18.48,-13.75 -5.22,-6.731 -7.84,-16.399 -7.84,-29.003 v -2.578 c 0,-10.599 2.22,-19.264 6.66,-25.996 4.44,-6.731 10.89,-11.673 19.34,-14.824 8.45,-3.151 18.9,-4.726 31.36,-4.726 h 2.25 c 4.61,6.684 12.32,11.068 21.05,11.068 5.52,0 10.64,-1.756 14.82,-4.74 z m -395.12,-5.109 c 6.19,-1.672 13.12,-2.508 20.78,-2.508 h 3.44 c 11.88,0 21.91,2.256 30.08,6.767 8.16,4.512 14.21,10.492 18.15,17.939 3.94,7.448 5.91,15.54 5.91,24.277 v 7.949 h -12.03 v -8.164 c 0,-6.445 -1.51,-12.568 -4.52,-18.368 -3,-5.801 -7.66,-10.527 -13.96,-14.18 -6.3,-3.652 -14.18,-5.478 -23.63,-5.478 h -3.44 c -6.18,0 -11.75,0.682 -16.69,2.046 v -5.395 c 0,-2.44 -1.77,-4.469 -4.09,-4.885 z m -26.25,59.44 c -0.01,0.685 -0.02,1.376 -0.02,2.074 v 26.64 c 0,0.858 0.01,1.706 0.03,2.544 h -12.25 c -0.02,-0.84 -0.02,-1.688 -0.02,-2.544 v -26.64 c 0,-0.697 0,-1.388 0.01,-2.074 z M 532.295,206.042 c 5.386,3.475 9.711,7.975 12.972,13.498 4.44,7.519 6.66,16.936 6.66,28.251 v 6.446 c 0,11.314 -2.184,20.767 -6.553,28.358 -4.368,7.591 -10.741,13.249 -19.12,16.973 -8.379,3.724 -18.512,5.585 -30.4,5.585 h -34.159 v 42.324 H 431.402 V 197.089 h 64.237 c 1.566,0 3.101,0.033 4.605,0.097 l 17.064,17.064 c 0.94,0.94 2.217,1.463 3.547,1.453 1.329,-0.01 2.599,-0.552 3.524,-1.506 z m -70.6,73.975 h 33.944 c 8.594,0 14.967,-2.077 19.121,-6.23 4.153,-4.154 6.23,-10.384 6.23,-18.691 v -8.164 c 0,-8.164 -2.112,-14.323 -6.338,-18.476 -4.225,-4.154 -10.706,-6.231 -19.442,-6.231 H 461.695 Z M 1112.94,57.283 c -2.78,1.705 -5.81,2.976 -9.09,3.813 v 1.289 c 6.02,0.859 10.67,3.258 13.96,7.197 3.3,3.939 4.95,9.202 4.95,15.791 v 24.706 c 0,4.727 0.71,8.057 2.14,9.99 1.44,1.934 4.16,2.901 8.17,2.901 1.29,-0.143 2.57,-0.215 3.86,-0.215 v 10.097 c -1,0.144 -2.04,0.251 -3.11,0.323 -1.07,0.071 -2.19,0.107 -3.33,0.107 -4.73,0 -8.56,-0.68 -11.49,-2.041 -2.94,-1.361 -5.09,-3.545 -6.45,-6.553 -1.36,-3.007 -2.04,-7.018 -2.04,-12.031 V 87.306 c 0,-7.018 -2.22,-12.031 -6.66,-15.038 -4.44,-3.008 -11.32,-4.512 -20.63,-4.512 h -45.54 v 64.882 h -12.03 V -17.75 h 58 c 14.61,0 25.86,3.366 33.73,10.097 7.88,6.732 11.82,16.185 11.82,28.359 v 0.139 c -4.88,1.274 -9.2,3.959 -12.49,7.591 0.02,-0.563 0.03,-1.135 0.03,-1.714 v -4.297 c 0,-9.739 -2.94,-17.116 -8.81,-22.128 -5.87,-5.013 -14.32,-7.52 -25.35,-7.52 h -44.9 v 64.452 h 44.9 c 11.17,0 19.66,-2.578 25.46,-7.734 0.76,-0.674 1.47,-1.39 2.12,-2.147 0.25,3.561 1.22,6.922 2.78,9.935 z m 538.71,285.467 h 29.6 c 0.3,1.636 0.76,3.216 1.36,4.727 h -32.31 c 0.59,-1.511 1.05,-3.091 1.35,-4.727 z m 65.99,-27.611 v -118.05 h 76.06 v 4.727 h -71.54 v 72.401 h 69.18 v 4.726 h -69.18 v 39.038 c -1.4,-1.096 -2.91,-2.051 -4.52,-2.842 z m -204.24,21.665 c 4.95,1.386 10.51,2.079 16.69,2.079 h 3.44 c 9.59,0 17.54,-1.826 23.85,-5.478 6.3,-3.652 10.92,-8.379 13.85,-14.18 2.94,-5.8 4.41,-11.995 4.41,-18.583 v -5.801 h 12.03 v 5.801 c 0,8.593 -1.97,16.65 -5.91,24.169 -3.94,7.52 -9.99,13.535 -18.15,18.047 -8.17,4.511 -18.2,6.767 -30.08,6.767 h -3.44 c -7.31,0 -13.94,-0.759 -19.9,-2.278 1.87,-0.709 3.21,-2.521 3.21,-4.645 z m 102.84,-22.125 v -117.59 h 4.51 v 116.089 c -1.56,0.362 -3.07,0.867 -4.51,1.501 z m 115.27,28.071 h 62.19 v 4.727 h -63.55 c 0.59,-1.511 1.05,-3.091 1.36,-4.727 z m 71.7,1117.75 h 19.06 v 4.73 h -23.73 c 1.75,-1.37 3.33,-2.96 4.67,-4.73 z m -275.38,67.88 c -8.7,-4.94 -15.21,-12.13 -19.55,-21.58 -4.36,-9.52 -6.55,-21.16 -6.55,-34.91 v -26.64 c 0,-13.75 2.19,-25.39 6.55,-34.91 4.37,-9.53 10.96,-16.76 19.77,-21.7 8.81,-4.94 19.8,-7.41 32.98,-7.41 h 3.43 c 11.89,0 21.92,2.25 30.08,6.76 8.17,4.52 14.22,10.5 18.16,17.94 3.93,7.45 5.9,15.54 5.9,24.28 v 7.95 h -12.03 V 1430 c 0,-6.45 -1.5,-12.57 -4.51,-18.37 -3.01,-5.8 -7.66,-10.53 -13.96,-14.18 -6.3,-3.65 -14.18,-5.48 -23.64,-5.48 h -3.43 c -15.9,0 -27.72,4.51 -35.45,13.53 -7.74,9.03 -11.6,22.28 -11.6,39.75 v 26.64 c 0,17.47 3.9,30.72 11.71,39.74 7.8,9.03 19.58,13.54 35.34,13.54 h 3.43 c 9.6,0 17.55,-1.83 23.85,-5.48 6.3,-3.65 10.92,-8.38 13.86,-14.18 2.94,-5.8 4.4,-11.99 4.4,-18.58 v -5.8 h 12.03 v 5.8 c 0,8.59 -1.97,16.65 -5.9,24.17 -3.94,7.52 -9.99,13.53 -18.16,18.04 -4.62,2.55 -9.83,4.39 -15.64,5.49 -9.34,-5.85 -20.39,-9.23 -32.22,-9.23 -6.58,0 -12.91,1.04 -18.85,2.98 z M 343.104,1052.28 c -2.794,-2.94 -6.267,-5.25 -10.42,-6.95 -4.369,-1.79 -10.42,-3.69 -18.154,-5.7 -10.313,-2.72 -18.763,-5.51 -25.351,-8.38 -6.589,-2.86 -12.246,-7.34 -16.973,-13.42 -4.726,-6.09 -7.089,-14.22 -7.089,-24.388 v -1.504 c 0,-8.88 2.005,-16.292 6.015,-22.236 4.011,-5.944 9.775,-10.348 17.295,-13.213 7.519,-2.864 16.65,-4.296 27.392,-4.296 h 3.437 c 10.885,0 20.123,1.611 27.714,4.833 7.591,3.223 13.356,7.985 17.295,14.287 3.939,6.302 5.908,14.036 5.908,23.203 v 7.514 h -22.988 v -8.374 c 0,-4.583 -1.146,-8.486 -3.437,-11.708 -2.292,-3.223 -5.55,-5.693 -9.775,-7.412 -4.226,-1.719 -9.131,-2.578 -14.717,-2.578 h -3.652 c -8.164,0 -14.573,1.504 -19.228,4.511 -4.655,3.008 -6.982,7.591 -6.982,13.75 v 2.148 c 0,4.87 1.432,8.843 4.296,11.923 2.865,3.08 6.517,5.52 10.957,7.31 4.44,1.79 10.456,3.68 18.047,5.69 10.455,2.86 18.941,5.73 25.458,8.59 6.517,2.87 12.138,7.31 16.865,13.32 0.622,0.8 1.204,1.62 1.745,2.49 -8.712,1.81 -16.743,5.48 -23.658,10.59 z m 267.289,339.06 c 1.564,-1.02 3.202,-1.95 4.912,-2.81 9.739,-4.87 21.627,-7.3 35.663,-7.3 h 2.578 c 13.893,0 25.638,2.47 35.234,7.41 9.596,4.94 16.936,12.39 22.021,22.34 5.084,9.96 7.626,22.38 7.626,37.28 v 20.84 c 0,14.89 -2.542,27.32 -7.626,37.27 -5.085,9.96 -12.425,17.37 -22.021,22.24 -9.596,4.87 -21.341,7.3 -35.234,7.3 h -2.578 c -14.036,0 -25.924,-2.43 -35.663,-7.3 -9.74,-4.87 -17.116,-12.28 -22.129,-22.24 -5.013,-9.95 -7.519,-22.38 -7.519,-37.27 v -20.84 c 0,-5.07 0.29,-9.85 0.869,-14.35 1.715,0.36 3.493,0.55 5.316,0.55 14.105,0 25.556,-11.45 25.556,-25.56 0,-6.8 -2.664,-12.98 -7.005,-17.56 z m 5.986,77.7 v 0.49 c 0,14.03 2.9,24.41 8.701,31.15 5.801,6.73 14.43,10.1 25.888,10.1 h 2.578 c 11.601,0 20.159,-3.37 25.673,-10.1 5.515,-6.74 8.272,-17.12 8.272,-31.15 v -21.7 c 0,-14.18 -2.793,-24.64 -8.379,-31.37 -5.586,-6.73 -14.108,-10.1 -25.566,-10.1 h -2.578 c -8.786,0 -15.909,2 -21.369,6 -0.633,-0.28 -1.326,-0.43 -2.035,-0.43 -1.342,0 -2.627,0.54 -3.562,1.5 l -27.737,28.58 c -1.889,1.95 -1.866,5.05 0.052,6.97 z M 1696.84,562.316 H 1644.6 V 411.929 h 12.03 v 139.645 h 65.53 v 10.742 h -6.25 c -2.95,-1.186 -6.17,-1.84 -9.53,-1.84 -3.37,0 -6.59,0.654 -9.54,1.84 z m 122.49,821.064 h 5.3 v 0.8 c -1.7,-0.45 -3.48,-0.72 -5.3,-0.8 z m 56.14,-65.36 c -2.88,-0.69 -5.58,-1.53 -8.08,-2.53 -7.88,-3.15 -13.86,-7.95 -17.94,-14.4 -4.08,-6.44 -6.12,-14.61 -6.12,-24.49 v -6.87 h 29.43 v 7.73 c 0,4.01 0.97,7.41 2.9,10.2 1.93,2.8 4.76,4.91 8.48,6.34 3.73,1.43 8.03,2.15 12.9,2.15 h 4.08 c 7.3,0 12.89,-1.25 16.76,-3.76 3.86,-2.51 5.8,-6.34 5.8,-11.49 v -2.8 c 0,-4.01 -1.26,-7.3 -3.76,-9.88 -2.51,-2.58 -5.7,-4.58 -9.56,-6.01 -3.87,-1.44 -9.17,-3.01 -15.9,-4.73 -10.32,-2.44 -18.84,-5.05 -25.57,-7.84 -6.73,-2.79 -12.53,-7.31 -17.4,-13.54 -4.87,-6.23 -7.31,-14.79 -7.31,-25.67 v -1.72 c 0,-9.45 2.08,-17.26 6.24,-23.42 4.15,-6.16 10.13,-10.7 17.94,-13.64 7.8,-2.94 17.29,-4.4 28.46,-4.4 h 3.44 c 11.31,0 20.84,1.57 28.57,4.72 7.74,3.15 13.61,7.95 17.62,14.4 4.01,6.44 6.01,14.53 6.01,24.27 v 6.88 h -29.43 v -7.95 c 0,-4.01 -0.97,-7.38 -2.9,-10.1 -1.93,-2.72 -4.62,-4.76 -8.06,-6.12 -3.43,-1.36 -7.37,-2.04 -11.81,-2.04 h -3.87 c -6.73,0 -11.99,1.22 -15.79,3.65 -3.79,2.44 -5.69,6.16 -5.69,11.17 v 2.79 c 0,4.02 1.29,7.31 3.86,9.89 2.58,2.58 5.81,4.58 9.67,6.01 3.87,1.44 9.24,3.01 16.12,4.73 10.31,2.58 18.76,5.23 25.35,7.95 6.58,2.72 12.31,7.2 17.18,13.43 4.87,6.23 7.31,14.71 7.31,25.45 v 1.94 c 0,9.88 -2.04,17.9 -6.12,24.06 -4.09,6.16 -10.07,10.67 -17.94,13.53 -6.51,2.37 -14.3,3.76 -23.35,4.17 l -13.45,-13.45 c -0.94,-0.94 -2.22,-1.46 -3.55,-1.45 -1.33,0.01 -2.6,0.55 -3.52,1.51 z m -1397.448,-45.5 v 46.4 h -23.847 v -150.38 h 63.807 c 11.602,0 21.377,1.82 29.326,5.47 7.949,3.66 13.965,9.03 18.047,16.12 4.081,7.09 6.122,16 6.122,26.74 v 6.88 c 0,10.74 -2.041,19.73 -6.122,26.96 -4.082,7.23 -10.062,12.68 -17.94,16.33 -7.877,3.65 -17.545,5.48 -29.003,5.48 z m 0,-20.2 h 40.175 c 9.883,0 17.152,-2.29 21.807,-6.87 4.654,-4.58 6.982,-11.6 6.982,-21.06 v -7.95 c 0,-9.31 -2.363,-16.29 -7.09,-20.94 -4.726,-4.66 -12.103,-6.98 -22.128,-6.98 h -39.746 z m 478.447,3.23 v 46.83 h 64.671 v 16.54 h -84.006 v -150.38 h 84.006 v 16.54 H 956.469 V 1239 h 60.801 v 16.55 z m 101.831,-1.51 v 64.88 h -12.03 v -150.38 h 58.01 c 14.61,0 25.85,3.36 33.73,10.09 7.88,6.74 11.82,16.19 11.82,28.36 v 4.3 c 0,9.88 -2.4,17.9 -7.2,24.06 -4.8,6.16 -10.85,10.17 -18.16,12.03 v 1.29 c 6.02,0.86 10.67,3.26 13.97,7.2 3.29,3.94 4.94,9.2 4.94,15.79 v 24.71 c 0,4.72 0.72,8.05 2.15,9.99 1.43,1.93 4.15,2.9 8.16,2.9 1.29,-0.15 2.58,-0.22 3.87,-0.22 v 10.1 c -1,0.14 -2.04,0.25 -3.12,0.32 -1.07,0.07 -2.18,0.11 -3.33,0.11 -4.72,0 -8.55,-0.68 -11.49,-2.04 -2.94,-1.36 -5.08,-3.55 -6.45,-6.56 -1.36,-3 -2.04,-7.01 -2.04,-12.03 v -25.35 c 0,-7.02 -2.22,-12.03 -6.66,-15.04 -4.44,-3 -11.31,-4.51 -20.62,-4.51 z m 0,-10.52 h 44.9 c 11.18,0 19.66,-2.58 25.46,-7.74 5.8,-5.16 8.7,-12.75 8.7,-22.77 v -4.3 c 0,-9.74 -2.93,-17.11 -8.8,-22.13 -5.88,-5.01 -14.33,-7.52 -25.36,-7.52 h -44.9 z m 375.54,13.96 h -7.09 l -46.19,-88.94 h 5.37 l 43.83,84.21 h 12.68 l 43.82,-84.21 h 5.37 l -46.19,88.94 h -7.09 v 61.44 h -4.51 z m 127.83,63.59 c -13.17,0 -24.06,-2.47 -32.65,-7.41 -8.6,-4.94 -14.97,-12.14 -19.13,-21.59 -4.15,-9.45 -6.23,-20.77 -6.23,-33.95 v -28.78 c 0,-13.18 2.08,-24.5 6.23,-33.95 4.16,-9.45 10.53,-16.65 19.13,-21.59 8.59,-4.94 19.48,-7.41 32.65,-7.41 h 3.22 c 11.75,0 21.52,2.25 29.33,6.76 7.81,4.52 13.57,10.28 17.29,17.3 3.73,7.02 5.59,14.25 5.59,21.7 v 8.38 h -4.73 v -8.38 c 0,-6.73 -1.68,-13.22 -5.04,-19.45 -3.37,-6.22 -8.6,-11.42 -15.69,-15.57 -7.09,-4.15 -16,-6.23 -26.75,-6.23 h -3.22 c -18.05,0 -31.44,5.05 -40.17,15.15 -8.74,10.09 -13.11,24.52 -13.11,43.29 v 28.78 c 0,18.77 4.37,33.2 13.11,43.29 8.73,10.1 22.12,15.15 40.17,15.15 h 3.22 c 10.75,0 19.66,-2.08 26.75,-6.23 7.09,-4.15 12.32,-9.38 15.69,-15.68 3.36,-6.31 5.04,-12.75 5.04,-19.34 v -5.8 h 4.73 v 5.8 c 0,7.31 -1.86,14.47 -5.59,21.49 -3.72,7.01 -9.48,12.81 -17.29,17.4 -7.81,4.58 -17.58,6.87 -29.33,6.87 z M 734.111,1168.54 h 19.98 l 28.144,123.53 h 1.933 l 29.863,-123.53 h 21.054 l 30.078,123.53 h 2.148 l 27.929,-123.53 h 19.98 l -35.233,150.38 h -24.922 l -29.433,-113 h -2.148 l -29.003,113 h -24.922 z m 899.099,0 h 45.76 v 111.5 h 48.34 v 38.88 h -94.1 z m 147.17,96.24 v 15.69 h 52.2 v 38.45 h -97.96 v -150.38 h 97.96 v 38.45 h -52.2 v 20.41 h 45.54 v 37.38 z m -479.52,56.29 c -13.18,0 -24.17,-2.47 -32.98,-7.41 -8.81,-4.94 -15.4,-12.17 -19.77,-21.7 -4.36,-9.52 -6.55,-21.16 -6.55,-34.91 v -26.64 c 0,-13.75 2.19,-25.39 6.55,-34.91 4.37,-9.53 10.96,-16.76 19.77,-21.7 8.81,-4.94 19.8,-7.41 32.98,-7.41 h 3.43 c 11.89,0 21.92,2.25 30.08,6.76 8.17,4.52 14.22,10.5 18.16,17.94 3.93,7.45 5.9,15.54 5.9,24.28 v 7.95 h -12.03 v -8.16 c 0,-6.45 -1.5,-12.57 -4.51,-18.37 -3.01,-5.8 -7.66,-10.53 -13.96,-14.18 -6.31,-3.66 -14.18,-5.48 -23.64,-5.48 h -3.43 c -15.9,0 -27.72,4.51 -35.45,13.53 -7.74,9.03 -11.6,22.28 -11.6,39.75 v 26.64 c 0,17.47 3.9,30.72 11.71,39.75 7.8,9.02 19.58,13.53 35.34,13.53 h 3.43 c 9.6,0 17.55,-1.83 23.85,-5.48 6.3,-3.65 10.92,-8.38 13.86,-14.18 2.93,-5.8 4.4,-11.99 4.4,-18.58 v -5.8 h 12.03 v 5.8 c 0,8.59 -1.97,16.65 -5.9,24.17 -3.94,7.52 -9.99,13.53 -18.16,18.04 -8.16,4.52 -18.19,6.77 -30.08,6.77 z m -237.83,151.68 v 61.01 h -19.34 v -150.38 h 61.02 c 15.32,0 27.18,3.36 35.55,10.09 8.38,6.73 12.57,16.33 12.57,28.79 v 4.08 c 0,9.89 -2.4,17.94 -7.2,24.17 -4.79,6.23 -10.84,10.21 -18.15,11.93 v 1.93 c 6.02,0.72 10.6,2.97 13.75,6.77 3.15,3.79 4.73,8.91 4.73,15.36 v 20.62 c 0,4.16 0.68,7.06 2.04,8.7 1.36,1.65 3.76,2.47 7.2,2.47 h 4.08 v 15.69 c -1.58,0.28 -3.19,0.43 -4.84,0.43 h -5.05 c -5.44,0 -9.84,-0.76 -13.21,-2.26 -3.36,-1.5 -5.87,-3.87 -7.52,-7.09 -1.64,-3.22 -2.47,-7.48 -2.47,-12.78 v -22.13 c 0,-6.3 -1.82,-10.78 -5.48,-13.43 -3.65,-2.65 -9.34,-3.97 -17.08,-3.97 z m 0,-16.12 h 39.32 c 10.02,0 17.54,-2.25 22.55,-6.76 5.02,-4.51 7.52,-11.14 7.52,-19.87 v -4.3 c 0,-8.45 -2.54,-14.9 -7.62,-19.34 -5.09,-4.44 -12.57,-6.66 -22.45,-6.66 h -39.32 z m 584.15,-73.25 h 4.51 v 145.66 h 69.39 v 4.72 h -73.9 z m -914.358,0 h 24.706 l 25.136,117.3 h 2.149 l 27.284,-117.3 h 25.137 l 27.069,117.3 h 2.364 l 25.351,-117.3 h 24.491 l -33.944,150.38 h -30.722 l -25.996,-103.55 h -2.363 l -25.781,103.55 h -30.507 z m 226.655,88.51 v 41.46 H 1022 v 20.41 H 935.63 V 1383.38 H 1022 v 20.41 h -62.523 v 48.12 h 58.223 v 19.98 z m 340.953,64.02 c -13.32,0 -24.53,-2.43 -33.62,-7.3 -9.1,-4.87 -15.9,-12.18 -20.42,-21.92 -4.51,-9.74 -6.76,-21.7 -6.76,-35.88 v -24.49 c 0,-14.18 2.25,-26.14 6.76,-35.88 4.52,-9.74 11.32,-17.04 20.42,-21.91 9.09,-4.87 20.3,-7.3 33.62,-7.3 h 3.43 c 12.18,0 22.46,2.25 30.83,6.76 8.38,4.52 14.65,10.75 18.8,18.69 4.16,7.95 6.23,16.87 6.23,26.75 v 7.52 h -19.12 v -7.73 c 0,-6.45 -1.29,-12.32 -3.86,-17.62 -2.58,-5.3 -6.63,-9.56 -12.14,-12.78 -5.52,-3.22 -12.43,-4.84 -20.74,-4.84 h -3.43 c -13.9,0 -24.21,4.05 -30.94,12.14 -6.73,8.09 -10.1,20.09 -10.1,35.99 v 24.92 c 0,15.9 3.4,27.89 10.21,35.99 6.8,8.09 17.08,12.13 30.83,12.13 h 3.43 c 8.46,0 15.44,-1.61 20.95,-4.83 5.52,-3.22 9.53,-7.48 12.03,-12.78 2.51,-5.3 3.76,-11.17 3.76,-17.62 v -6.02 h 19.12 v 5.8 c 0,9.89 -2.07,18.8 -6.23,26.75 -4.15,7.95 -10.42,14.18 -18.8,18.69 -8.37,4.51 -18.65,6.77 -30.83,6.77 z m 129.33,-60.15 h -7.3 l -44.05,-92.38 h 13.54 l 38.24,80.77 h 11.17 l 38.24,-80.77 h 13.32 l -44.04,92.38 h -7.09 v 58 h -12.03 z M 1294.99,895.754 c -42.49,0 -74.93,-9.998 -97.3,-29.996 -22.37,-19.997 -33.56,-51.868 -33.56,-95.613 v -20.247 c 0,-43.495 11.19,-75.303 33.56,-95.426 22.37,-20.122 54.81,-30.183 97.3,-30.183 h 223.85 c 26.25,0 48.37,3.999 66.37,11.998 17.99,7.999 31.87,20.997 41.62,38.995 9.74,17.998 14.62,41.62 14.62,70.866 v 2.625 h -101.61 v -1.875 c -0.25,-9.999 -1.19,-17.56 -2.82,-22.684 -1.62,-5.125 -4.49,-8.749 -8.62,-10.874 -4.12,-2.125 -10.31,-3.187 -18.56,-3.187 h -201.72 c -12.75,0 -21.88,3.062 -27.38,9.186 -5.5,6.124 -8.24,16.436 -8.24,30.934 v 20.622 c 0,13.998 2.74,23.997 8.24,29.996 5.5,6 14.63,8.999 27.38,8.999 h 201.72 c 8.25,0 14.44,-1 18.56,-2.999 4.13,-2 7.06,-5.562 8.81,-10.687 1.75,-5.124 2.63,-12.435 2.63,-21.934 v -2.25 h 101.61 v 1.875 c 0,29.246 -4.81,52.868 -14.44,70.866 -9.62,17.998 -23.49,30.996 -41.62,38.995 -18.12,7.999 -40.3,11.998 -66.55,11.998 z m 614.92,-153.355 h 55.12 c 26,0 46.31,6.249 60.93,18.747 14.63,12.499 21.94,29.872 21.94,52.119 v 3.749 c 0,16.748 -3.94,30.996 -11.81,42.745 -7.88,11.749 -19.5,20.685 -34.87,26.809 -15.38,6.124 -34.56,9.186 -57.56,9.186 h -190.85 c -20.25,0 -38.06,-3.124 -53.43,-9.373 -15.37,-6.25 -27.37,-15.811 -36,-28.684 -8.62,-12.874 -12.93,-28.809 -12.93,-47.807 v -2.624 h 97.86 v 2.249 c 0,3.75 0.44,6.687 1.31,8.812 0.88,2.124 2.44,3.624 4.69,4.499 2.25,0.875 5.5,1.312 9.75,1.312 h 167.98 c 4.5,0 8.12,-0.374 10.87,-1.124 2.75,-0.75 4.69,-2.063 5.81,-3.937 1.13,-1.875 1.69,-4.312 1.69,-7.312 v -3.375 c 0,-4.999 -1.37,-8.561 -4.12,-10.686 -2.75,-2.124 -7.25,-3.187 -13.5,-3.187 h -215.23 v -52.118 l 118.86,-28.122 v -6.749 H 1663.2 v -78.74 h 365.58 v 74.241 l -118.87,32.996 z m -795.99,-0.375 c -1.71,3.526 -4.16,7.026 -7.34,10.498 -6.88,7.5 -16.06,13.624 -27.56,18.373 -11.5,4.75 -24.12,7.124 -37.87,7.124 H 848.423 c -15.248,0 -29.121,-2.749 -41.62,-8.249 -12.498,-5.499 -22.56,-13.873 -30.184,-25.122 -7.624,-11.248 -11.436,-24.996 -11.436,-41.244 v -2.25 c 0,-15.998 3.75,-29.684 11.249,-41.057 7.499,-11.374 17.56,-19.81 30.184,-25.31 12.623,-5.499 26.559,-8.249 41.807,-8.249 h 192.727 c 15.25,0 29.18,2.75 41.81,8.249 12.62,5.5 22.68,13.936 30.18,25.31 7.5,11.373 11.25,25.059 11.25,41.057 v 106.487 c 0,19.247 -3.69,35.37 -11.06,48.368 -7.38,12.999 -17.13,22.498 -29.25,28.497 -12.12,5.999 -25.68,8.999 -40.68,8.999 H 851.048 c -14.749,0 -28.372,-2.75 -40.87,-8.249 -12.499,-5.5 -22.372,-13.936 -29.622,-25.31 -7.249,-11.373 -10.873,-25.184 -10.873,-41.432 v -14.248 h 8.249 v 14.248 c 0,22.497 6.999,39.37 20.997,50.619 13.998,11.248 31.371,16.873 52.119,16.873 H 1043.4 c 13.25,0 25.31,-2.625 36.18,-7.874 10.87,-5.25 19.69,-13.811 26.44,-25.685 6.75,-11.873 10.12,-26.809 10.12,-44.806 V 742.024 Z M 848.423,634.412 c -21.247,0 -39.058,5.625 -53.431,16.873 -14.373,11.249 -21.56,27.872 -21.56,49.869 v 2.25 c 0,22.247 7.187,38.87 21.56,49.868 14.373,10.999 32.059,16.498 53.056,16.498 h 192.722 c 21.75,0 39.75,-5.499 54,-16.498 14.25,-10.998 21.37,-27.621 21.37,-49.868 v -2.25 c 0,-21.997 -7.12,-38.62 -21.37,-49.869 -14.25,-11.248 -32.12,-16.873 -53.62,-16.873 z M 458.097,751.398 h 162.73 c 28.496,0 50.493,5.874 65.991,17.622 15.498,11.749 23.247,28.997 23.247,51.744 v 3 c 0,14.998 -3.812,27.746 -11.436,38.245 -7.624,10.498 -17.81,18.372 -30.558,23.622 -12.749,5.249 -26.622,7.874 -41.62,7.874 H 445.723 c -15.248,0 -29.183,-2.562 -41.807,-7.687 -12.623,-5.124 -22.747,-12.998 -30.371,-23.622 -7.624,-10.623 -11.436,-23.809 -11.436,-39.557 v -17.248 h 8.249 v 17.248 c 0,20.997 7.249,36.683 21.747,47.056 14.498,10.374 32.371,15.561 53.618,15.561 h 180.728 c 12.998,0 25.247,-2.25 36.745,-6.749 11.499,-4.5 20.81,-11.311 27.934,-20.435 7.124,-9.124 10.686,-20.56 10.686,-34.308 v -3 c 0,-20.748 -6.936,-36.121 -20.81,-46.119 -13.873,-9.999 -33.808,-14.998 -59.805,-14.998 H 436.725 v -8.999 L 668.446,639.287 v -2.25 H 372.983 v -8.249 h 317.21 v 8.999 L 458.097,749.148 Z M 492.631,530.09 v 32.226 h -45.76 V 411.929 h 65.096 c 12.89,0 24.062,2.005 33.515,6.015 9.453,4.01 16.793,10.169 22.021,18.476 5.228,8.307 7.842,18.834 7.842,31.582 v 6.015 c 0,12.604 -2.579,23.095 -7.735,31.474 -5.156,8.379 -12.496,14.573 -22.021,18.584 -9.524,4.01 -20.732,6.015 -33.622,6.015 z m 0,-37.597 h 18.906 c 5.443,0 9.632,-1.468 12.568,-4.404 2.937,-2.936 4.405,-7.269 4.405,-12.998 v -8.378 c 0,-5.729 -1.468,-10.062 -4.405,-12.998 -2.936,-2.936 -7.125,-4.404 -12.568,-4.404 H 492.631 Z M 630.343,349.625 c -14.036,0 -25.924,-2.435 -35.663,-7.304 -9.739,-4.87 -17.115,-12.282 -22.128,-22.236 -5.013,-9.954 -7.52,-22.379 -7.52,-37.275 v -20.839 c 0,-14.896 2.507,-27.356 7.52,-37.382 5.013,-10.026 12.389,-17.474 22.128,-22.344 9.739,-4.869 21.627,-7.304 35.663,-7.304 h 2.578 c 13.893,0 25.638,2.471 35.234,7.412 9.596,4.941 16.937,12.389 22.021,22.343 5.085,9.954 7.627,22.379 7.627,37.275 v 20.839 c 0,14.896 -2.542,27.321 -7.627,37.275 -5.084,9.954 -12.425,17.366 -22.021,22.236 -9.596,4.869 -21.341,7.304 -35.234,7.304 z m 2.578,-25.136 c 11.602,0 20.16,-3.366 25.674,-10.097 5.514,-6.732 8.271,-17.116 8.271,-31.152 v -21.699 c 0,-14.179 -2.793,-24.635 -8.379,-31.366 -5.585,-6.732 -14.107,-10.098 -25.566,-10.098 h -2.578 c -11.458,0 -20.087,3.402 -25.888,10.205 -5.8,6.803 -8.701,17.223 -8.701,31.259 v 21.699 c 0,14.036 2.901,24.42 8.701,31.152 5.801,6.731 14.43,10.097 25.888,10.097 z m 79.276,-127.4 h 24.707 l 25.136,117.303 h 2.148 l 27.285,-117.303 h 25.136 l 27.07,117.303 h 2.363 l 25.351,-117.303 h 24.492 L 861.94,347.477 H 831.218 L 805.223,243.924 h -2.364 l -25.78,103.553 h -30.508 z m 713.483,310.658 h -7.31 l -41.89,-95.818 h 21.48 l 32.66,77.342 h 9.45 l 32.87,-77.342 h 21.49 l -41.9,95.818 h -7.52 v 54.569 h -19.33 z m 471.14,56.717 c -9.88,0 -18.37,-1.718 -25.46,-5.156 -7.09,-3.437 -12.42,-8.235 -16,-14.394 -3.58,-6.159 -5.37,-13.248 -5.37,-21.269 v -7.734 h 4.72 v 7.734 c 0,7.304 1.61,13.642 4.84,19.013 3.22,5.371 8.02,9.596 14.39,12.676 6.37,3.079 14,4.619 22.88,4.619 h 6.02 c 12.6,0 22.48,-2.507 29.64,-7.52 7.16,-5.012 10.75,-12.245 10.75,-21.698 v -1.504 c 0,-8.021 -2.01,-14.573 -6.02,-19.658 -4.01,-5.085 -8.99,-9.059 -14.93,-11.924 -5.94,-2.864 -13.79,-6.015 -23.53,-9.453 -10.45,-3.723 -18.76,-7.125 -24.92,-10.204 -6.16,-3.08 -11.35,-7.412 -15.57,-12.998 -4.23,-5.586 -6.34,-12.819 -6.34,-21.699 v -0.644 c 0,-6.875 1.72,-12.748 5.16,-17.617 3.43,-4.87 8.34,-8.63 14.71,-11.279 6.38,-2.65 13.93,-3.975 22.67,-3.975 h 6.23 c 9.59,0 17.79,1.683 24.6,5.049 6.8,3.366 11.96,8.056 15.47,14.072 3.5,6.015 5.26,12.89 5.26,20.624 v 8.379 h -4.73 v -8.379 c 0,-6.874 -1.57,-12.997 -4.72,-18.368 -3.16,-5.371 -7.77,-9.525 -13.86,-12.461 -6.09,-2.936 -13.43,-4.404 -22.02,-4.404 h -6.23 c -11.75,0 -20.98,2.47 -27.72,7.412 -6.73,4.941 -10.09,11.923 -10.09,20.947 v 0.644 c 0,7.878 1.93,14.323 5.8,19.336 3.86,5.013 8.7,8.951 14.5,11.816 5.8,2.864 13.57,5.944 23.31,9.238 10.45,3.724 18.8,7.125 25.03,10.205 6.23,3.079 11.53,7.483 15.89,13.212 4.37,5.729 6.56,13.106 6.56,22.129 v 1.504 c 0,7.018 -1.83,13.033 -5.48,18.046 -3.65,5.013 -8.81,8.88 -15.47,11.601 -6.66,2.722 -14.64,4.082 -23.95,4.082 z m -1246.067,0 c -14.609,0 -27.07,-2.399 -37.382,-7.197 -10.312,-4.798 -18.19,-12.246 -23.632,-22.343 -5.443,-10.097 -8.164,-23.024 -8.164,-38.778 v -17.832 c 0,-15.755 2.721,-28.717 8.164,-38.886 5.442,-10.169 13.32,-17.653 23.632,-22.451 10.312,-4.798 22.773,-7.197 37.382,-7.197 h 2.793 c 14.323,0 26.604,2.399 36.845,7.197 10.241,4.798 18.154,12.282 23.74,22.451 5.586,10.169 8.378,23.131 8.378,38.886 v 17.832 c 0,15.754 -2.792,28.681 -8.378,38.778 -5.586,10.097 -13.499,17.545 -23.74,22.343 -10.241,4.798 -22.522,7.197 -36.845,7.197 z m 2.578,-37.811 c 7.878,0 13.571,-2.22 17.08,-6.66 3.509,-4.44 5.263,-12.175 5.263,-23.203 v -19.121 c 0,-11.028 -1.79,-18.798 -5.37,-23.31 -3.581,-4.511 -9.239,-6.767 -16.973,-6.767 h -2.578 c -7.591,0 -13.248,2.327 -16.972,6.982 -3.724,4.655 -5.586,12.353 -5.586,23.095 v 19.121 c 0,10.742 1.862,18.405 5.586,22.988 3.724,4.583 9.381,6.875 16.972,6.875 z m 77.772,-114.724 h 31.152 l 21.269,108.708 h 2.578 L 809.09,411.929 h 31.366 l 22.773,108.708 h 2.793 l 21.054,-108.708 h 31.152 l -32.011,150.387 h -38.886 l -21.269,-90.232 h -2.793 L 802,562.316 H 763.759 Z M 1560.6,564.464 c -13.32,0 -24.53,-2.434 -33.62,-7.304 -9.1,-4.87 -15.9,-12.174 -20.41,-21.914 -4.52,-9.739 -6.77,-21.698 -6.77,-35.878 v -24.492 c 0,-14.179 2.25,-26.138 6.77,-35.878 4.51,-9.739 11.31,-17.044 20.41,-21.913 9.09,-4.87 20.3,-7.305 33.62,-7.305 h 3.44 c 12.17,0 22.45,2.256 30.82,6.768 8.38,4.511 14.65,10.742 18.8,18.691 4.16,7.949 6.23,16.864 6.23,26.747 v 7.519 h -19.12 v -7.734 c 0,-6.445 -1.29,-12.317 -3.87,-17.617 -2.57,-5.299 -6.62,-9.56 -12.13,-12.782 -5.52,-3.223 -12.43,-4.834 -20.73,-4.834 h -3.44 c -13.9,0 -24.21,4.046 -30.94,12.138 -6.73,8.092 -10.1,20.088 -10.1,35.986 v 24.921 c 0,15.898 3.4,27.893 10.21,35.986 6.8,8.092 17.08,12.138 30.83,12.138 h 3.44 c 8.45,0 15.43,-1.611 20.94,-4.834 5.52,-3.223 9.53,-7.483 12.03,-12.783 2.51,-5.299 3.76,-11.171 3.76,-17.617 v -6.015 h 19.12 v 5.8 c 0,9.883 -2.07,18.799 -6.23,26.748 -4.15,7.949 -10.42,14.179 -18.8,18.691 -8.37,4.512 -18.65,6.767 -30.82,6.767 z m 197.44,-68.104 v 55.214 h 67.88 v 10.742 H 1746 V 411.929 h 79.92 v 10.742 h -67.88 v 63.162 h 64.88 V 496.36 Z M 1269.92,134.786 c -13.18,0 -24.17,-2.471 -32.98,-7.412 -8.81,-4.941 -15.39,-12.174 -19.76,-21.699 -4.37,-9.524 -6.56,-21.161 -6.56,-34.911 v -26.64 c 0,-13.75 2.19,-25.387 6.56,-34.912 4.37,-9.524 10.95,-16.757 19.76,-21.698 8.81,-4.942 19.8,-7.412 32.98,-7.412 h 3.44 c 11.89,0 21.91,2.255 30.07,6.767 8.17,4.512 14.22,10.491 18.16,17.939 3.94,7.448 5.91,15.54 5.91,24.277 v 7.949 h -12.03 V 28.87 c 0,-6.445 -1.51,-12.568 -4.52,-18.369 -3,-5.8 -7.66,-10.527 -13.96,-14.179 -6.3,-3.652 -14.18,-5.478 -23.63,-5.478 h -3.44 c -15.9,0 -27.71,4.511 -35.45,13.534 -7.73,9.024 -11.6,22.272 -11.6,39.746 v 26.64 c 0,17.473 3.9,30.722 11.71,39.745 7.8,9.023 19.58,13.535 35.34,13.535 h 3.44 c 9.59,0 17.54,-1.826 23.84,-5.478 6.31,-3.653 10.92,-8.379 13.86,-14.18 2.94,-5.8 4.41,-11.995 4.41,-18.583 v -5.801 h 12.03 v 5.801 c 0,8.593 -1.97,16.65 -5.91,24.169 -3.94,7.519 -9.99,13.535 -18.16,18.046 -8.16,4.512 -18.18,6.768 -30.07,6.768 z M 935.845,69.26 v 46.835 h 64.665 v 16.543 H 916.509 V -17.75 h 84.001 v 16.543 h -64.665 v 53.924 h 60.799 V 69.26 Z m 666.435,-87.01 h 45.76 V 93.752 h 48.34 v 38.886 h -94.1 z"
   style="fill:#000012"
   id="path1" />
    </g>
</svg>
